<svg xmlns="http://www.w3.org/2000/svg" viewBox="0 0 48 48" xmlns:xlink="http://www.w3.org/1999/xlink" xml:space="preserve" width="100%" height="100%"><g xmlns="http://www.w3.org/2000/svg" fill="none"><use href="#svgID0" fill-opacity=".01"></use><use href="#svgID0" fill-opacity=".01"></use><path stroke="#333" stroke-linejoin="round" stroke-width="4" d="M4 10a2 2 0 012-2h36a2 2 0 012 2v28a2 2 0 01-2 2H6a2 2 0 01-2-2z"></path><path stroke="#333" stroke-linecap="round" stroke-linejoin="round" stroke-width="4" d="M36 8v32M12 8v32m26-22h6m-6 12h6M4 18h6m-6-2v4M9 8h6M9 40h6M33 8h6m-6 32h6M4 30h6m-6-2v4m40-4v4m0-16v4"></path><path stroke="#333" stroke-linejoin="round" stroke-width="4" d="m21 19 8 5-8 5z"></path></g></svg>